<?xml version="1.0" ?><svg id="Слой_1" style="enable-background:new 0 0 128 128;" version="1.1" viewBox="0 0 128 128" xml:space="preserve" xmlns="http://www.w3.org/2000/svg" xmlns:xlink="http://www.w3.org/1999/xlink"><style type="text/css">
	.st0{fill:#E4E7E7;}
	.st1{fill:#E2574C;}
	.st2{fill:#D95449;}
	.st3{fill:#E5685E;}
	.st4{fill:#EFEFEF;}
	.st5{fill:#E6E6E6;}
	.st6{fill:#F1F1F1;}
</style><path class="st0" d="M112,62.1c-0.1-1.4-0.2-2.7-0.3-4.1l2.6-2.6c11.5-11.5,11.5-30.3,0-41.7c-11.5-11.5-30.2-11.5-41.7,0l-2.6,2.6  c-1.3-0.2-2.7-0.3-4.1-0.3l4.5-4.5c12.7-12.7,33.4-12.8,46.1,0c12.7,12.7,12.7,33.4,0,46.1L112,62.1z M58.1,16.4l-2.6-2.6  c-11.5-11.5-30.3-11.5-41.7,0C2.2,25.2,2.2,44,13.8,55.5l2.6,2.6c-0.2,1.3-0.3,2.7-0.3,4.1l-4.5-4.5c-12.7-12.7-12.8-33.4,0-46.1  c12.7-12.7,33.4-12.7,46.1,0l4.5,4.5C60.8,16.1,59.4,16.2,58.1,16.4z M16,65.9c0.1,1.4,0.2,2.7,0.3,4.1l-2.6,2.6  c-11.5,11.5-11.5,30.3-0.1,41.7c11.5,11.5,30.2,11.5,41.7,0l2.6-2.6c1.3,0.2,2.7,0.3,4.1,0.3l-4.5,4.5  c-12.7,12.7-33.4,12.8-46.1,0.1c-12.7-12.7-12.7-33.4,0.1-46.1L16,65.9z M69.9,111.6l2.6,2.6c11.5,11.5,30.3,11.5,41.7,0  c11.5-11.5,11.5-30.2-0.1-41.7l-2.6-2.6c0.2-1.3,0.3-2.7,0.3-4.1l4.5,4.5c12.7,12.7,12.8,33.4,0.1,46.1  c-12.7,12.7-33.4,12.7-46.1-0.1l-4.5-4.5C67.2,111.9,68.6,111.8,69.9,111.6z"/><g><path class="st1" d="M64,0C28.7,0,0,28.7,0,64c0,35.3,28.6,64,64,64c35.3,0,64-28.7,64-64C128,28.7,99.3,0,64,0z M64,96   c-17.7,0-32-14.3-32-32c0-17.7,14.3-32,32-32c17.7,0,32,14.3,32,32C96,81.7,81.7,96,64,96z"/></g><path class="st2" d="M64,24.3c-21.9,0-39.7,17.8-39.7,39.7c0,21.9,17.8,39.7,39.7,39.7c21.9,0,39.7-17.8,39.7-39.7  C103.7,42.1,85.9,24.3,64,24.3z M64,96c-17.7,0-32-14.3-32-32c0-17.7,14.3-32,32-32c17.7,0,32,14.3,32,32C96,81.7,81.7,96,64,96z"/><g><path class="st3" d="M64,9C33.6,9,9,33.6,9,64c0,30.4,24.6,55,55,55s55-24.6,55-55C119,33.6,94.4,9,64,9z M64,115   c-28.2,0-51-22.8-51-51c0-28.2,22.8-51,51-51c28.2,0,51,22.8,51,51C115,92.2,92.2,115,64,115z"/></g><g><path class="st4" d="M49.1,92.3c-5.8-3-10.5-7.8-13.5-13.5L12.5,102c3.8,5.1,8.3,9.7,13.5,13.5L49.1,92.3z"/><path class="st4" d="M78.8,35.6c5.8,3,10.5,7.7,13.5,13.5L115.5,26c-3.8-5.1-8.4-9.7-13.5-13.5L78.8,35.6z"/><path class="st4" d="M12.5,26l23.1,23.1c3-5.8,7.7-10.5,13.5-13.5L26,12.5C20.9,16.3,16.3,20.9,12.5,26z"/><path class="st4" d="M115.5,102L92.4,78.9c-3,5.8-7.7,10.5-13.5,13.5l23.1,23.1C107.1,111.7,111.7,107.1,115.5,102z"/></g><g><path class="st5" d="M84.5,30l-5.6,5.6c5.8,3,10.5,7.7,13.5,13.5l5.6-5.6C94.6,38,90,33.3,84.5,30z"/><path class="st5" d="M35.6,78.8L30,84.5C33.3,90,38,94.6,43.5,98l5.6-5.6C43.4,89.3,38.7,84.6,35.6,78.8z"/><path class="st5" d="M78.9,92.4l5.6,5.6C90,94.7,94.6,90,98,84.5l-5.6-5.6C89.3,84.6,84.6,89.3,78.9,92.4z"/><path class="st5" d="M49.2,35.7L43.5,30C38,33.4,33.4,38,30,43.5l5.6,5.6C38.7,43.4,43.4,38.7,49.2,35.7z"/></g><g><path class="st6" d="M21.8,92.7l-2.9,2.9c3.7,5.2,8.2,9.8,13.5,13.5l2.9-2.9C30,102.5,25.4,98,21.8,92.7z"/><path class="st6" d="M106.2,92.7c-3.6,5.3-8.2,9.9-13.5,13.5l2.9,2.9c5.2-3.7,9.8-8.3,13.5-13.5L106.2,92.7z"/><path class="st6" d="M21.8,35.3c3.6-5.3,8.2-9.9,13.5-13.5L32.5,19c-5.2,3.7-9.8,8.3-13.5,13.5L21.8,35.3z"/><path class="st6" d="M106.2,35.3l2.9-2.9c-3.7-5.2-8.3-9.8-13.5-13.5l-2.9,2.9C98,25.4,102.5,30,106.2,35.3z"/></g></svg>